<svg width="213" height="105" viewBox="0 0 213 105" fill="none" xmlns="http://www.w3.org/2000/svg">
<path d="M60.8 7.76C61.6533 9.04 62.08 14 62.08 22.64V42H48.4V24V19.68C48.4 17.7067 48.2133 16.5333 47.84 16.16C47.4133 15.7333 46.5067 15.52 45.12 15.52L44.16 15.6C42.5067 15.7067 40.9333 16.08 39.44 16.72C39.4933 17.84 39.52 19.8133 39.52 22.64V42H25.84V24V19.2C25.84 17.5467 25.6533 16.5333 25.28 16.16C24.8533 15.7333 23.9467 15.52 22.56 15.52L21.6 15.6C20.1067 15.6533 18.56 16 16.96 16.64V42H3.28V5.2H14.4L15.84 11.2C17.6 8.85333 19.6267 7.14666 21.92 6.08C24.2133 4.96 26.5333 4.4 28.88 4.4C30.8533 4.4 32.72 4.69333 34.48 5.28C36.2933 5.86667 37.5467 6.69333 38.24 7.76C38.56 8.24 38.8267 9.12 39.04 10.4C40.7467 8.32 42.6933 6.8 44.88 5.84C47.0667 4.88 49.2533 4.4 51.44 4.4C53.4133 4.4 55.28 4.69333 57.04 5.28C58.8533 5.86667 60.1067 6.69333 60.8 7.76ZM90.7563 32.4C92.0896 32.4 94.5696 32.2667 98.1963 32C98.6763 32 99.5563 31.9467 100.836 31.84L102.036 40.08C97.9296 42 92.5963 42.96 86.0363 42.96C79.9029 42.96 75.1829 41.4133 71.8763 38.32C68.6229 35.2267 66.9963 30.56 66.9963 24.32C66.9963 21.12 67.3963 18.0267 68.1963 15.04C69.0496 12.0533 70.0096 9.97333 71.0763 8.8C72.1963 7.62667 74.2763 6.61333 77.3163 5.76C80.3563 4.90667 83.3696 4.48 86.3563 4.48C91.1563 4.48 94.7563 5.33333 97.1563 7.04C99.5563 8.74666 101.13 11.12 101.876 14.16C102.623 17.1467 102.996 21.1733 102.996 26.24C99.3696 26.4533 95.8229 26.56 92.3563 26.56H80.9963C80.9963 28.2667 81.3429 29.5467 82.0363 30.4C82.7829 31.2533 83.8229 31.8133 85.1562 32.08C86.4896 32.2933 88.3563 32.4 90.7563 32.4ZM81.7963 14C81.4763 14.16 81.2363 14.8533 81.0763 16.08C80.9163 17.3067 80.8096 18.6933 80.7563 20.24H84.9163C87.4229 20.24 89.2363 20.2133 90.3563 20.16C90.3563 17.6 89.9829 15.7867 89.2363 14.72C88.5429 13.6533 87.3163 13.12 85.5563 13.12C84.1163 13.12 82.8629 13.4133 81.7963 14ZM165.331 7.76C166.185 9.04 166.611 14 166.611 22.64V42H152.931V24V19.68C152.931 17.7067 152.745 16.5333 152.371 16.16C151.945 15.7333 151.038 15.52 149.651 15.52L148.691 15.6C147.038 15.7067 145.465 16.08 143.971 16.72C144.025 17.84 144.051 19.8133 144.051 22.64V42H130.371V24V19.2C130.371 17.5467 130.185 16.5333 129.811 16.16C129.385 15.7333 128.478 15.52 127.091 15.52L126.131 15.6C124.638 15.6533 123.091 16 121.491 16.64V42H107.811V5.2H118.931L120.371 11.2C122.131 8.85333 124.158 7.14666 126.451 6.08C128.745 4.96 131.065 4.4 133.411 4.4C135.385 4.4 137.251 4.69333 139.011 5.28C140.825 5.86667 142.078 6.69333 142.771 7.76C143.091 8.24 143.358 9.12 143.571 10.4C145.278 8.32 147.225 6.8 149.411 5.84C151.598 4.88 153.785 4.4 155.971 4.4C157.945 4.4 159.811 4.69333 161.571 5.28C163.385 5.86667 164.638 6.69333 165.331 7.76ZM195.288 32.4C196.621 32.4 199.101 32.2667 202.728 32C203.208 32 204.088 31.9467 205.368 31.84L206.568 40.08C202.461 42 197.128 42.96 190.568 42.96C184.434 42.96 179.714 41.4133 176.408 38.32C173.154 35.2267 171.528 30.56 171.528 24.32C171.528 21.12 171.928 18.0267 172.728 15.04C173.581 12.0533 174.541 9.97333 175.608 8.8C176.728 7.62667 178.808 6.61333 181.848 5.76C184.888 4.90667 187.901 4.48 190.888 4.48C195.688 4.48 199.288 5.33333 201.688 7.04C204.088 8.74666 205.661 11.12 206.408 14.16C207.154 17.1467 207.528 21.1733 207.528 26.24C203.901 26.4533 200.354 26.56 196.888 26.56H185.528C185.528 28.2667 185.874 29.5467 186.568 30.4C187.314 31.2533 188.354 31.8133 189.688 32.08C191.021 32.2933 192.888 32.4 195.288 32.4ZM186.328 14C186.008 14.16 185.768 14.8533 185.608 16.08C185.448 17.3067 185.341 18.6933 185.288 20.24H189.448C191.954 20.24 193.768 20.2133 194.888 20.16C194.888 17.6 194.514 15.7867 193.768 14.72C193.074 13.6533 191.848 13.12 190.088 13.12C188.648 13.12 187.394 13.4133 186.328 14Z" fill="white"/>
<path d="M60.8 65.76C61.6533 67.04 62.08 72 62.08 80.64V100H48.4V82V77.68C48.4 75.7067 48.2133 74.5333 47.84 74.16C47.4133 73.7333 46.5067 73.52 45.12 73.52L44.16 73.6C42.5067 73.7067 40.9333 74.08 39.44 74.72C39.4933 75.84 39.52 77.8133 39.52 80.64V100H25.84V82V77.2C25.84 75.5467 25.6533 74.5333 25.28 74.16C24.8533 73.7333 23.9467 73.52 22.56 73.52L21.6 73.6C20.1067 73.6533 18.56 74 16.96 74.64V100H3.28V63.2H14.4L15.84 69.2C17.6 66.8533 19.6267 65.1467 21.92 64.08C24.2133 62.96 26.5333 62.4 28.88 62.4C30.8533 62.4 32.72 62.6933 34.48 63.28C36.2933 63.8667 37.5467 64.6933 38.24 65.76C38.56 66.24 38.8267 67.12 39.04 68.4C40.7467 66.32 42.6933 64.8 44.88 63.84C47.0667 62.88 49.2533 62.4 51.44 62.4C53.4133 62.4 55.28 62.6933 57.04 63.28C58.8533 63.8667 60.1067 64.6933 60.8 65.76ZM90.3563 100L89.0763 94.96C86.6229 98.96 83.2096 100.96 78.8363 100.96C75.2629 100.96 72.3296 99.9733 70.0363 98C67.7963 95.9733 66.6763 93.1467 66.6763 89.52C66.6763 87.28 67.3163 85.3333 68.5963 83.68C69.9296 81.9733 71.7429 80.7733 74.0363 80.08C77.0229 79.2267 81.6363 78.7467 87.8763 78.64C87.8763 75.12 87.7163 73.2533 87.3963 73.04C87.1296 72.8267 86.2763 72.72 84.8363 72.72C83.9296 72.72 82.6763 72.7733 81.0763 72.88C78.5163 72.9867 75.0496 73.28 70.6763 73.76C70.2496 70.88 69.9296 67.7867 69.7163 64.48C72.5429 63.8933 75.5029 63.4133 78.5963 63.04C81.6896 62.6133 84.4629 62.4 86.9163 62.4C91.1829 62.4 94.3829 63.12 96.5163 64.56C98.6496 65.9467 100.036 67.7867 100.676 70.08C101.316 72.3733 101.61 75.28 101.556 78.8L101.476 90.56L101.716 100H90.3563ZM83.4763 92C84.8629 92 86.3296 91.7333 87.8763 91.2V85.28H87.2363C83.2896 85.28 81.1029 85.4933 80.6763 85.92C80.4096 86.1867 80.1963 86.5867 80.0363 87.12C79.9296 87.6533 79.8763 88.16 79.8763 88.64C79.8763 89.92 80.1696 90.8 80.7563 91.28C81.3429 91.76 82.2496 92 83.4763 92ZM124.693 84.88C124.693 85.84 124.72 86.8533 124.773 87.92C124.826 88.9333 124.986 89.5733 125.253 89.84C125.626 90.2133 126.933 90.4 129.173 90.4L131.893 90.32C132.373 92.88 132.613 95.84 132.613 99.2C131.6 99.5733 130.106 99.92 128.133 100.24C126.213 100.56 124.373 100.72 122.613 100.72C118.933 100.72 116.08 99.92 114.053 98.32C112.08 96.6667 111.093 94.1333 111.093 90.72V71.04H105.093V63.76L111.093 63.2L114.693 54.4L124.693 53.84V63.2H133.173V71.04H124.693V84.88ZM168.224 98.88C163.904 100.32 159.078 101.04 153.744 101.04C147.771 101.04 143.291 99.5467 140.304 96.56C137.371 93.52 135.904 88.8 135.904 82.4C135.904 79.2533 136.331 76.16 137.184 73.12C138.038 70.0267 138.944 67.9467 139.904 66.88C141.024 65.6533 143.211 64.6133 146.464 63.76C149.771 62.9067 153.184 62.48 156.704 62.48C160.384 62.48 164.091 62.8 167.824 63.44C167.718 64.7733 167.531 66.3467 167.264 68.16C167.051 69.92 166.811 71.4933 166.544 72.88C163.238 72.6667 160.118 72.56 157.184 72.56C154.304 72.56 152.464 72.72 151.664 73.04C151.238 73.2 150.838 74.2933 150.464 76.32C150.144 78.3467 149.984 80.24 149.984 82C149.984 84.3467 150.304 86.16 150.944 87.44C151.638 88.6667 152.704 89.52 154.144 90C155.584 90.48 157.531 90.72 159.984 90.72C161.051 90.72 163.398 90.6133 167.024 90.4L168.224 98.88ZM208.411 65.52C208.891 66.1067 209.238 67.5733 209.451 69.92C209.718 72.2667 209.851 75.84 209.851 80.64V100H196.171V80.8C196.171 80.5867 196.171 79.5467 196.171 77.68C196.171 75.76 196.038 74.5867 195.771 74.16C195.611 73.9467 195.211 73.7867 194.571 73.68C193.985 73.5733 193.291 73.52 192.491 73.52L191.131 73.6C189.638 73.6533 188.091 74 186.491 74.64V100H172.811V52L186.491 51.44V60.8C186.491 64.64 186.358 67.2 186.091 68.48L186.171 68.56C189.798 64.4533 194.145 62.4 199.211 62.4C201.131 62.4 202.918 62.6667 204.571 63.2C206.278 63.7333 207.558 64.5067 208.411 65.52Z" fill="white"/>
</svg>
