<svg width="170" height="25" viewBox="0 0 170 25" fill="none" xmlns="http://www.w3.org/2000/svg">
<path d="M22.8 8.16C23.12 8.64 23.28 10.5 23.28 13.74V21H18.15V14.25V12.63C18.15 11.89 18.08 11.45 17.94 11.31C17.78 11.15 17.44 11.07 16.92 11.07L16.56 11.1C15.94 11.14 15.35 11.28 14.79 11.52C14.81 11.94 14.82 12.68 14.82 13.74V21H9.69V14.25V12.45C9.69 11.83 9.62 11.45 9.48 11.31C9.32 11.15 8.98 11.07 8.46 11.07L8.1 11.1C7.54 11.12 6.96 11.25 6.36 11.49V21H1.23V7.2H5.4L5.94 9.45C6.6 8.57 7.36 7.93 8.22 7.53C9.08 7.11 9.95 6.9 10.83 6.9C11.57 6.9 12.27 7.01 12.93 7.23C13.61 7.45 14.08 7.76 14.34 8.16C14.46 8.34 14.56 8.67 14.64 9.15C15.28 8.37 16.01 7.8 16.83 7.44C17.65 7.08 18.47 6.9 19.29 6.9C20.03 6.9 20.73 7.01 21.39 7.23C22.07 7.45 22.54 7.76 22.8 8.16ZM34.0336 17.4C34.5336 17.4 35.4636 17.35 36.8236 17.25C37.0036 17.25 37.3336 17.23 37.8136 17.19L38.2636 20.28C36.7236 21 34.7236 21.36 32.2636 21.36C29.9636 21.36 28.1936 20.78 26.9536 19.62C25.7336 18.46 25.1236 16.71 25.1236 14.37C25.1236 13.17 25.2736 12.01 25.5736 10.89C25.8936 9.77 26.2536 8.99 26.6536 8.55C27.0736 8.11 27.8536 7.73 28.9936 7.41C30.1336 7.09 31.2636 6.93 32.3836 6.93C34.1836 6.93 35.5336 7.25 36.4336 7.89C37.3336 8.53 37.9236 9.42 38.2036 10.56C38.4836 11.68 38.6236 13.19 38.6236 15.09C37.2636 15.17 35.9336 15.21 34.6336 15.21H30.3736C30.3736 15.85 30.5036 16.33 30.7636 16.65C31.0436 16.97 31.4336 17.18 31.9336 17.28C32.4336 17.36 33.1336 17.4 34.0336 17.4ZM30.6736 10.5C30.5536 10.56 30.4636 10.82 30.4036 11.28C30.3436 11.74 30.3036 12.26 30.2836 12.84H31.8436C32.7836 12.84 33.4636 12.83 33.8836 12.81C33.8836 11.85 33.7436 11.17 33.4636 10.77C33.2036 10.37 32.7436 10.17 32.0836 10.17C31.5436 10.17 31.0736 10.28 30.6736 10.5ZM61.9992 8.16C62.3192 8.64 62.4792 10.5 62.4792 13.74V21H57.3492V14.25V12.63C57.3492 11.89 57.2792 11.45 57.1392 11.31C56.9792 11.15 56.6392 11.07 56.1192 11.07L55.7592 11.1C55.1392 11.14 54.5492 11.28 53.9892 11.52C54.0092 11.94 54.0192 12.68 54.0192 13.74V21H48.8892V14.25V12.45C48.8892 11.83 48.8192 11.45 48.6792 11.31C48.5192 11.15 48.1792 11.07 47.6592 11.07L47.2992 11.1C46.7392 11.12 46.1592 11.25 45.5592 11.49V21H40.4292V7.2H44.5992L45.1392 9.45C45.7992 8.57 46.5592 7.93 47.4192 7.53C48.2792 7.11 49.1492 6.9 50.0292 6.9C50.7692 6.9 51.4692 7.01 52.1292 7.23C52.8092 7.45 53.2792 7.76 53.5392 8.16C53.6592 8.34 53.7592 8.67 53.8392 9.15C54.4792 8.37 55.2092 7.8 56.0292 7.44C56.8492 7.08 57.6692 6.9 58.4892 6.9C59.2292 6.9 59.9292 7.01 60.5892 7.23C61.2692 7.45 61.7392 7.76 61.9992 8.16ZM73.2328 17.4C73.7328 17.4 74.6628 17.35 76.0228 17.25C76.2028 17.25 76.5328 17.23 77.0128 17.19L77.4628 20.28C75.9228 21 73.9228 21.36 71.4628 21.36C69.1628 21.36 67.3928 20.78 66.1528 19.62C64.9328 18.46 64.3228 16.71 64.3228 14.37C64.3228 13.17 64.4728 12.01 64.7728 10.89C65.0928 9.77 65.4528 8.99 65.8528 8.55C66.2728 8.11 67.0528 7.73 68.1928 7.41C69.3328 7.09 70.4628 6.93 71.5828 6.93C73.3828 6.93 74.7328 7.25 75.6328 7.89C76.5328 8.53 77.1228 9.42 77.4028 10.56C77.6828 11.68 77.8228 13.19 77.8228 15.09C76.4628 15.17 75.1328 15.21 73.8328 15.21H69.5728C69.5728 15.85 69.7028 16.33 69.9628 16.65C70.2428 16.97 70.6328 17.18 71.1328 17.28C71.6328 17.36 72.3328 17.4 73.2328 17.4ZM69.8728 10.5C69.7528 10.56 69.6628 10.82 69.6028 11.28C69.5428 11.74 69.5028 12.26 69.4828 12.84H71.0428C71.9828 12.84 72.6628 12.83 73.0828 12.81C73.0828 11.85 72.9428 11.17 72.6628 10.77C72.4028 10.37 71.9428 10.17 71.2828 10.17C70.7428 10.17 70.2728 10.28 69.8728 10.5ZM79.4184 11.13H88.4184V15.42H79.4184V11.13ZM112.243 8.16C112.563 8.64 112.723 10.5 112.723 13.74V21H107.593V14.25V12.63C107.593 11.89 107.523 11.45 107.383 11.31C107.223 11.15 106.883 11.07 106.363 11.07L106.003 11.1C105.383 11.14 104.793 11.28 104.233 11.52C104.253 11.94 104.263 12.68 104.263 13.74V21H99.1334V14.25V12.45C99.1334 11.83 99.0634 11.45 98.9234 11.31C98.7634 11.15 98.4234 11.07 97.9034 11.07L97.5434 11.1C96.9834 11.12 96.4034 11.25 95.8034 11.49V21H90.6734V7.2H94.8434L95.3834 9.45C96.0434 8.57 96.8034 7.93 97.6634 7.53C98.5234 7.11 99.3934 6.9 100.273 6.9C101.013 6.9 101.713 7.01 102.373 7.23C103.053 7.45 103.523 7.76 103.783 8.16C103.903 8.34 104.003 8.67 104.083 9.15C104.723 8.37 105.453 7.8 106.273 7.44C107.093 7.08 107.913 6.9 108.733 6.9C109.473 6.9 110.173 7.01 110.833 7.23C111.513 7.45 111.983 7.76 112.243 8.16ZM123.327 21L122.847 19.11C121.927 20.61 120.647 21.36 119.007 21.36C117.667 21.36 116.567 20.99 115.707 20.25C114.867 19.49 114.447 18.43 114.447 17.07C114.447 16.23 114.687 15.5 115.167 14.88C115.667 14.24 116.347 13.79 117.207 13.53C118.327 13.21 120.057 13.03 122.397 12.99C122.397 11.67 122.337 10.97 122.217 10.89C122.117 10.81 121.797 10.77 121.257 10.77C120.917 10.77 120.447 10.79 119.847 10.83C118.887 10.87 117.587 10.98 115.947 11.16C115.787 10.08 115.667 8.92 115.587 7.68C116.647 7.46 117.757 7.28 118.917 7.14C120.077 6.98 121.117 6.9 122.037 6.9C123.637 6.9 124.837 7.17 125.637 7.71C126.437 8.23 126.957 8.92 127.197 9.78C127.437 10.64 127.547 11.73 127.527 13.05L127.497 17.46L127.587 21H123.327ZM120.747 18C121.267 18 121.817 17.9 122.397 17.7V15.48H122.157C120.677 15.48 119.857 15.56 119.697 15.72C119.597 15.82 119.517 15.97 119.457 16.17C119.417 16.37 119.397 16.56 119.397 16.74C119.397 17.22 119.507 17.55 119.727 17.73C119.947 17.91 120.287 18 120.747 18ZM136.203 15.33C136.203 15.69 136.213 16.07 136.233 16.47C136.253 16.85 136.313 17.09 136.413 17.19C136.553 17.33 137.043 17.4 137.883 17.4L138.903 17.37C139.083 18.33 139.173 19.44 139.173 20.7C138.793 20.84 138.233 20.97 137.493 21.09C136.773 21.21 136.083 21.27 135.423 21.27C134.043 21.27 132.973 20.97 132.213 20.37C131.473 19.75 131.103 18.8 131.103 17.52V10.14H128.853V7.41L131.103 7.2L132.453 3.9L136.203 3.69V7.2H139.383V10.14H136.203V15.33ZM152.528 20.58C150.908 21.12 149.098 21.39 147.098 21.39C144.858 21.39 143.178 20.83 142.058 19.71C140.958 18.57 140.408 16.8 140.408 14.4C140.408 13.22 140.568 12.06 140.888 10.92C141.208 9.76 141.548 8.98 141.908 8.58C142.328 8.12 143.148 7.73 144.368 7.41C145.608 7.09 146.888 6.93 148.208 6.93C149.588 6.93 150.978 7.05 152.378 7.29C152.338 7.79 152.268 8.38 152.168 9.06C152.088 9.72 151.998 10.31 151.898 10.83C150.658 10.75 149.488 10.71 148.388 10.71C147.308 10.71 146.618 10.77 146.318 10.89C146.158 10.95 146.008 11.36 145.868 12.12C145.748 12.88 145.688 13.59 145.688 14.25C145.688 15.13 145.808 15.81 146.048 16.29C146.308 16.75 146.708 17.07 147.248 17.25C147.788 17.43 148.518 17.52 149.438 17.52C149.838 17.52 150.718 17.48 152.078 17.4L152.528 20.58ZM167.598 8.07C167.778 8.29 167.908 8.84 167.988 9.72C168.088 10.6 168.138 11.94 168.138 13.74V21H163.008V13.8C163.008 13.72 163.008 13.33 163.008 12.63C163.008 11.91 162.958 11.47 162.858 11.31C162.798 11.23 162.648 11.17 162.408 11.13C162.188 11.09 161.928 11.07 161.628 11.07L161.118 11.1C160.558 11.12 159.978 11.25 159.378 11.49V21H154.248V3L159.378 2.79V6.3C159.378 7.74 159.328 8.7 159.228 9.18L159.258 9.21C160.618 7.67 162.248 6.9 164.148 6.9C164.868 6.9 165.538 7 166.158 7.2C166.798 7.4 167.278 7.69 167.598 8.07Z" fill="white"/>
</svg>
